# xmcd CD database file
#
# Track frame offsets:
#	150
#	19595
#	32582
#	51147
#	66950
#	88472
#	108452
#	126815
#	143282
#	160965
#	180482
#	196707
#	209912
#	229120
#	241440
#	253975
#	267950
#	280202
#	305102
#	319402
#
# Disc length: 4430 seconds
#
# Revision: 6
# Processed by: cddbd v1.5.2PL0 Copyright (c) Steve Scherf et al.
# Submitted via: CDex 1.51
#
DISCID=2c114c14
DTITLE=Cazuza - Millennium
DYEAR=1999
DGENRE=Rhythmic Soul
TTITLE0=Exagerado
TTITLE1=Faz Parte Do Meu Show
TTITLE2=Ideologia
TTITLE3=Bete Balanco
TTITLE4=O Tempo Nao Para
TTITLE5=Pro Dia Nascer Feliz
TTITLE6=Soh Se For A Dois
TTITLE7=O Nosso Amor A Gente Inventa
TTITLE8=Solidao Que Nada
TTITLE9=Vida Louca Vida
TTITLE10=Um Trem Para As Estrelas
TTITLE11=Quase Um Segundo
TTITLE12=Blues Da Piedade
TTITLE13=Todo Amor Que Houver Nessa Vida
TTITLE14=Boas Novas
TTITLE15=Minha Flor, Meu Bebe
TTITLE16=Maior Abandonado
TTITLE17=Burguesia
TTITLE18=Brasil
TTITLE19=Codinome Beija-flor
EXTD=YEAR: 1999
EXTT0=
EXTT1=
EXTT2=
EXTT3=
EXTT4=
EXTT5=
EXTT6=
EXTT7=
EXTT8=
EXTT9=
EXTT10=
EXTT11=
EXTT12=
EXTT13=
EXTT14=
EXTT15=
EXTT16=
EXTT17=
EXTT18=
EXTT19=
PLAYORDER=
